<svg version="1.1" xmlns="http://www.w3.org/2000/svg" xmlns:xlink="http://www.w3.org/1999/xlink" x="0px" y="0px"
	 viewBox="0 0 500 500" style="enable-background:new 0 0 500 500;" xml:space="preserve">
<g id="BACKGROUND">
</g>
<g id="OBJECT">
	<g>
		<g>
			<path style="fill:#5A7BCC;" d="M355.813,251.678c-15.284,8.112-18.562,15.017-65.503,28.37
				c-46.941,13.353-0.723,15.513-2.545,24.841c-1.822,9.328,43.844,3.876,72.647-18.041c28.803-21.917-9.095-10.524-0.604-22.79
				C368.3,251.793,358.686,250.153,355.813,251.678z"/>
			<path style="fill:#FF1A1A;" d="M189.29,230.621c-15.704,4.558-80.698,34.531-54.573,36.055
				c26.125,1.524-24.665,41.796,7.705,22.693c39.189-23.127,95.004-27.78,90.399-43.358
				C228.215,230.432,254.509,211.69,189.29,230.621z"/>
			<g>
				<path style="fill:#fff;" d="M369.811,166.171c-0.118-1.877-0.186-3.823-2.301-4.562c-0.848-0.297-1.691-0.195-2.556-0.129
					c-2.847,0.217-5.694,0.434-8.541,0.651c-12.08,0.921-24.16,1.841-36.239,2.762c-16.094,1.226-32.187,2.453-48.281,3.679
					c-3.185,0.243-6.369,0.485-9.554,0.728c-0.222-0.334-0.473-0.63-0.743-0.899l0.01,0.004c-1.478-1.637-3.271-2.532-3.703-2.732
					c-0.591-0.307-1.174-0.631-1.75-0.971c8.344-3.066,16.689-6.133,25.033-9.199c12.745-4.683,25.489-9.366,38.233-14.049
					c3.794-1.394,7.588-2.788,11.382-4.183c1.729-0.635,4.542-1.206,5.585-2.872c1.035-1.654,0.062-3.386-0.55-4.987
					c-0.651-1.704-1.2-3.424-3.289-3.742c-1.102-0.168-2.051,0.205-3.033,0.596c-2.593,1.031-5.186,2.061-7.779,3.092
					c-11.184,4.445-22.368,8.89-33.552,13.335c-13.432,5.338-26.864,10.676-40.296,16.015c-0.51-0.441-1.033-0.866-1.524-1.326
					c-1.346-1.26-2.529-2.721-4.135-3.667c-3.125-1.84-6.872-1.768-10.014-0.299c-0.078-0.053-0.163-0.087-0.256-0.1
					c-0.102-0.03-0.207-0.038-0.315-0.025c-0.222,0.023-0.458,0.089-0.635,0.232c-0.049,0.045-0.098,0.09-0.147,0.135
					c-0.081,0.089-0.13,0.193-0.149,0.311c-0.028,0.1-0.038,0.204-0.04,0.308c-1.099,0.731-2.083,1.65-2.88,2.733
					c-2.276,3.093-2.838,6.915-2.44,10.656c-4.584,1.822-9.168,3.643-13.752,5.465c-1.414,0.115-2.828,0.231-4.24,0.362
					c-1.736,0.161-3.398,1.144-3.784,2.827c-0.206,0.082-0.413,0.164-0.619,0.246c-6.782,2.695-13.611,5.296-20.354,8.089
					c-1.748,0.724-3.226,2.377-2.453,4.4c1.57,3.407,5.032,1.729,7.57,0.796c3.523-1.295,7.046-2.589,10.57-3.884
					c5.518-2.027,11.035-4.055,16.552-6.082c2.297-0.115,4.594-0.23,6.891-0.344c1.191-0.059,2.382-0.119,3.573-0.178
					c0.211,0.769,0.287,1.596,0.296,2.38c0.001,0.109-0.014,0.218-0.015,0.328c-0.02,0.011-0.042,0.017-0.062,0.029
					c-0.56,0.338-0.94,0.952-1.094,1.578c-0.128,0.52-0.093,1.19,0.46,1.449c0.1,0.047,0.208,0.079,0.318,0.101
					c-0.122,0.721-0.132,1.392,0.232,2.096c0.789,1.528,2.67,2.073,4.249,1.554c0.879-0.289,1.657-0.856,2.119-1.669
					c0.355-0.625,0.475-1.408,0.597-2.109c0.352-2.013,0.307-4.081-0.067-6.088c0.478-0.024,0.957-0.048,1.435-0.072
					c0.068,0.37,0.139,0.739,0.222,1.105c0.61,2.679,1.563,5.303,2.22,7.982c-0.894,0.959-1.967,1.763-3.192,2.231
					c-1.168,0.446-2.447,0.36-3.584,0.897c-1.43,0.675-2.284,2.266-1.507,3.774c0.721,1.398,2.27,1.519,3.67,1.451
					c1.945-0.095,3.709-0.636,5.292-1.487c0.076,0.647,0.276,1.259,0.767,1.789c0.957,1.034,2.496,1.298,3.793,0.825
					c2.867-1.046,2.768-4.912,2.513-7.419c-0.078-0.77-0.24-1.514-0.429-2.249c0.086-0.164,0.162-0.333,0.244-0.499
					c0.005,0.005,0.002,0.013,0.007,0.018c0.169,0.155,0.343,0.305,0.521,0.45c0.108,0.087,0.217,0.173,0.332,0.251
					c0.128,0.087,0.272,0.169,0.421,0.208c0.38,0.1,0.784,0.021,1.109-0.198c0.15-0.101,0.285-0.258,0.319-0.442
					c0.012-0.065,0.003-0.132-0.005-0.199c-0.02-0.079-0.062-0.141-0.127-0.184c-0.06-0.062-0.133-0.104-0.22-0.123
					c-0.073-0.023-0.148-0.025-0.223-0.027c-0.047-0.034-0.099-0.06-0.145-0.095c-0.121-0.093-0.237-0.191-0.353-0.291
					c-0.025-0.023-0.051-0.045-0.077-0.068c-0.053-0.067-0.12-0.113-0.199-0.139c-0.085-0.045-0.176-0.069-0.273-0.073
					c-0.112-0.012-0.222-0.005-0.331,0.021c-0.117,0.014-0.228,0.048-0.334,0.1c-0.021,0.011-0.042,0.027-0.064,0.039
					c0.506-1.138,0.916-2.314,1.221-3.495c0.417-1.618,0.809-3.254,1.354-4.8c0.18-0.009,0.36-0.018,0.54-0.027
					c0.665,4.154,0.634,8.44-0.619,12.478c-1.351,4.355-3.822,8.331-6.591,11.919c-1.679,2.176-3.505,4.298-5.519,6.178
					c-0.037,0.028-0.072,0.057-0.095,0.088c-0.835,0.733-1.645,1.506-2.44,2.3c-0.239,0.112-0.438,0.277-0.491,0.498
					c-0.001,0.005-0.001,0.01-0.003,0.015c-3.461,3.55-6.515,7.627-9.06,11.891c-0.135,0.081-0.253,0.181-0.315,0.318
					c-0.104,0.228-0.184,0.468-0.282,0.699c-0.628,1.094-1.234,2.193-1.793,3.3c-0.221,0.438-0.424,0.887-0.634,1.331
					c-0.002-0.015-0.004-0.029-0.005-0.044c-0.016-0.324,0.001-0.655,0.051-0.975c0.025-0.163-0.072-0.321-0.201-0.409
					c-0.154-0.106-0.393-0.142-0.574-0.122c-0.222,0.024-0.458,0.089-0.635,0.231c-0.142,0.113-0.269,0.251-0.298,0.439
					c-0.043,0.274-0.063,0.554-0.06,0.831c0.002,0.248,0.009,0.511,0.079,0.751c0.091,0.312,0.286,0.553,0.597,0.665
					c0.122,0.044,0.257,0.059,0.392,0.063c-1.859,4.249-3.164,8.744-3.683,13.349c-0.095,0.026-0.191,0.049-0.285,0.076
					c-3.71,1.018-7.422,2.088-11.123,3.214c-1.091-0.671-2.292-1.148-3.544-1.426c-1.449-0.322-3.135-0.44-4.562,0.048
					c-1.06,0.362-1.952,1.075-2.249,2.188c-0.217,0.816-0.067,1.687,0.218,2.477c-1.861,0.64-3.713,1.303-5.558,1.988
					c-0.568-1.633-1.24-3.224-2.129-4.735c-1.338-2.275-3.358-4.997-5.902-6.066c-0.95-0.399-1.634,0.186-2.403,0.702
					c-1.446,0.97-2.892,1.939-4.338,2.909c-0.178,0.12-0.557,0.511-0.151,0.65c3.814,1.303,6.219,5.605,7.548,9.432
					c-4.421,1.833-8.775,3.809-13.016,6c-4.855,2.509-9.721,5.312-13.83,8.952c-0.223,0.198-0.45,0.407-0.676,0.616
					c-1.703-0.282-3.817-0.471-4.792,0.545c-1.752,1.826-2.921,4.597-3.564,6.993c-0.15,0.56,0.969,0.347,1.182,0.255
					c0.013-0.006,0.017-0.008,0.025-0.012c0.014-0.004,0.023-0.006,0.043-0.011c0.275-0.074,0.466-0.114,0.732-0.155
					c0.525-0.081,1.059-0.109,1.594-0.111c-0.006,0.046-0.022,0.089-0.027,0.134c-0.068,0.606-0.019,1.176,0.087,1.725
					c-0.006,0.04-0.026,0.077-0.023,0.119c1.487,18.778,14.244,34.133,29.705,43.855c1.671,1.051,3.381,2.053,5.146,2.938
					c0.145,0.073,0.289,0.152,0.438,0.216c0.001,0,0.002,0.001,0.003,0.001c0.008,0.057,0.026,0.141,0.037,0.255
					c0.088,0.957,1.152,2.013,1.811,2.611c2.447,2.222,5.856,3.366,8.98,4.234c4.898,1.362,9.984,2.053,15.041,2.481
					c14.033,1.189,28.273,0.345,42.2-1.589c14.913-2.071,29.684-5.514,43.872-10.576c10.344-3.691,20.767-8.149,29.738-14.579
					c2.764-1.981,5.518-4.213,7.559-6.96c0.738-0.994,1.397-2.059,1.799-3.236c0.161-0.471,0.289-0.956,0.344-1.452
					c0.047-0.418-0.158-1.132-0.039-1.504c0.131-0.41,1.363-1.489,1.668-1.869c0.58-0.723,1.146-1.457,1.699-2.2
					c1.195-1.608,2.331-3.264,3.393-4.963c1.878-3.006,3.528-6.154,4.905-9.421c2.227-5.283,3.748-10.87,4.447-16.563
					c0.842-6.861,0.634-14.12-1.218-20.816c-0.094-0.341-0.191-0.682-0.306-1.017c0,0,0,0,0,0c-0.096-0.452-0.251-0.871-0.436-1.273
					c0.682-1.306,1.269-2.665,1.726-4.088c0.215-0.672,0.403-1.353,0.56-2.041c0.089-0.388,0.391-1.161,0.267-1.534
					c-0.15-0.451-0.865-0.991-1.197-1.278c-2.074-1.795-4.694-2.32-7.363-1.899c-0.102,0.016-0.205,0.048-0.306,0.087
					c-0.323,0.077-0.617,0.209-0.681,0.385c-0.527,1.452-1.164,2.878-1.877,4.265c-1.5-0.504-3.035-0.922-4.593-1.256
					c0.498-0.287,0.998-0.569,1.477-0.89c0.06-0.04,0.221-0.132,0.202-0.236c-0.446-2.41-1.356-5.369-3.419-6.867
					c-0.195-0.142-0.691-0.014-1.082,0.158c-0.156,0.036-0.292,0.076-0.357,0.115c-3.552,2.136-7.844,3.467-11.945,3.863
					c-1.909,0.184-3.843,0.151-5.738-0.158c-0.667-0.109-1.327-0.262-1.98-0.437c-0.066-0.936-0.148-1.866-0.251-2.786
					c-0.474-4.253-1.355-8.724-3.308-12.576c-0.091-0.179-0.181-0.359-0.284-0.532c-0.008-0.014-0.027-0.018-0.038-0.031
					c-1.249-2.511-3.192-4.645-6.053-5.305c-4.408-1.017-9.255,0.906-13.069,2.957c-5.31,2.855-10.026,6.906-14.032,11.383
					c-2.54,2.838-4.921,5.954-6.789,9.326c-0.687-0.055-1.375-0.104-2.061-0.169c0,0,0,0,0,0c-1.667-0.222-3.289-1.266-4.423-2.457
					c-3.444-3.62-3.113-9.372-2.152-13.884c0.999-4.69,3.041-8.926,4.729-13.379c1.467-3.873,2.443-7.972,2.542-12.125
					c0.005-0.157,0.022-0.31,0.024-0.467c0-0.011-0.007-0.017-0.008-0.028c0-0.012,0.001-0.024,0.001-0.035
					c0.019-3.457-0.664-6.79-1.948-9.876c14.818-0.74,29.637-1.481,44.455-2.221c13.496-0.674,26.993-1.348,40.489-2.023
					c3.98-0.199,7.961-0.398,11.941-0.596c2.08-0.104,4.976,0.193,6.509-1.48C370.318,169.678,369.915,167.819,369.811,166.171z
					 M244.835,187.652c-0.025,0.072-0.05,0.144-0.033,0.222c-0.002-0.037-0.004-0.074-0.006-0.11
					C244.81,187.726,244.822,187.689,244.835,187.652z M277.415,147.993c12.444-4.946,24.887-9.891,37.331-14.837
					c3.867-1.537,7.734-3.074,11.601-4.611c1.46-0.58,3.078-1.517,4.624-1.838c2.125-0.441,2.707,1.924,3.279,3.42
					c0.635,1.661,1.815,3.969-0.436,5.034c-0.392,0.185-0.83,0.305-1.236,0.454c-2.771,1.018-5.542,2.037-8.313,3.055
					c-11.161,4.101-22.322,8.203-33.482,12.304c-11.888,4.368-23.775,8.737-35.663,13.105c-1.013-0.637-2.003-1.312-2.971-2
					c-1.186-0.843-2.333-1.742-3.454-2.673C258.268,155.603,267.842,151.798,277.415,147.993z M231.226,155.363
					c0.081,0.042,0.163,0.087,0.25,0.113c0.452,0.136,0.916,0.092,1.37-0.01c0.113-0.026,0.217-0.072,0.312-0.136
					c0.093-0.047,0.173-0.111,0.24-0.191c0.099-0.117,0.193-0.312,0.139-0.471c-0.056-0.165-0.189-0.286-0.356-0.338
					c-0.065-0.02-0.13-0.022-0.195-0.029c0.608-0.274,1.258-0.497,1.966-0.64c2.424-0.49,4.929,0.137,6.892,1.623
					c1.533,1.161,2.796,2.707,4.239,3.982c1.44,1.271,2.953,2.458,4.513,3.578c-1.555-0.346-3.124-0.486-4.642-0.297
					c-2.105-1.369-3.631-3.477-5.814-4.744c-2.015-1.169-4.574-1.391-6.633-0.185c-2.685,1.572-3.618,5.183-3.672,8.15
					c-0.941,0.374-1.882,0.748-2.822,1.122C226.67,162.649,227.922,157.927,231.226,155.363z M241.115,161.398
					c-3.183,1.265-6.366,2.53-9.549,3.795c0.079-1.623,0.419-3.309,1.144-4.73c0.826-1.62,2.181-2.642,4.074-2.43
					c1.183,0.132,2.223,0.735,3.162,1.468C240.349,160.122,240.739,160.754,241.115,161.398z M206.594,181.912
					c-7.168,2.634-14.336,5.268-21.505,7.902c-1.308,0.481-2.505,0.396-3.247-1.215c-1.115-2.916,2.682-3.688,4.585-4.444
					c3.563-1.416,7.126-2.832,10.69-4.248c2.13-0.846,4.259-1.693,6.389-2.539c0.516,3.508,4.246,2.868,6.808,2.74
					c0.46-0.023,0.919-0.046,1.379-0.069C209.992,180.663,208.293,181.288,206.594,181.912z M226.158,184.107
					c-0.008,0.015-0.019,0.028-0.027,0.042c-0.033-0.09-0.053-0.184-0.059-0.281c0.008-0.259,0.075-0.513,0.174-0.751
					c0.012-0.025,0.032-0.046,0.045-0.071c0.003,0.005,0.007,0.01,0.01,0.015c0.007,0.061,0.009,0.123,0.01,0.185
					C226.309,183.539,226.266,183.834,226.158,184.107z M230.856,184.179c-0.073,0.67-0.186,1.337-0.341,1.993
					c-0.149,0.633-0.391,1.238-0.993,1.567c-1.125,0.615-2.391-0.467-2.649-1.543c-0.098-0.41-0.054-0.83,0.028-1.248
					c0.354-0.178,0.677-0.454,0.85-0.808c0.14-0.288,0.224-0.583,0.247-0.903c0.014-0.203,0.023-0.417-0.006-0.619
					c-0.001-0.009-0.002-0.018-0.003-0.028c-0.005-0.041-0.03-0.075-0.061-0.106c0,0,0-0.001,0-0.001
					c-0.152-0.263-0.371-0.444-0.633-0.571c0.003-0.222,0.015-0.444,0.007-0.666c-0.024-0.635-0.072-1.296-0.202-1.932
					c1.167-0.058,2.333-0.117,3.5-0.175C230.94,180.799,231.04,182.49,230.856,184.179z M233.612,177.886
					c-0.967,0.048-1.933,0.097-2.9,0.145c-7.516,0.375-15.031,0.751-22.547,1.126c-1.512,0.076-2.753-0.526-2.987-2.319
					c-0.179-2.84,3.786-2.418,5.612-2.557c3.879-0.296,7.757-0.591,11.636-0.887c3.762-0.287,7.524-0.573,11.286-0.86
					C233.348,174.279,233.364,176.088,233.612,177.886z M233.986,171.46c-1.713,0.13-3.427,0.261-5.14,0.392
					c-4.675,0.356-9.359,0.668-14.037,1.023c3.746-1.489,7.491-2.977,11.237-4.466c0.221-0.01,0.44-0.063,0.556-0.109
					c1.481-0.589,2.963-1.178,4.444-1.766c0.106-0.042,0.24-0.135,0.341-0.248c0.67-0.266,1.341-0.533,2.011-0.799
					c3.035-1.206,6.07-2.413,9.105-3.619c0.332,0.34,0.683,0.686,1.046,0.993c-1.441,0.311-2.807,0.896-4.051,1.681
					c-0.016-0.021-0.035-0.039-0.058-0.056c-0.177-0.275-0.381-0.51-0.712-0.616c-0.542-0.173-1.16-0.025-1.641,0.257
					c-0.564,0.331-0.949,0.942-1.105,1.567c-0.13,0.522-0.099,1.184,0.455,1.444c0.007,0.003,0.015,0.004,0.022,0.007
					c-0.551,0.632-1.052,1.307-1.476,2.026C234.547,169.909,234.23,170.677,233.986,171.46z M237.858,165.308
					c-0.005,0.293-0.052,0.588-0.166,0.859c-0.003,0.006-0.007,0.01-0.01,0.016c-0.038-0.099-0.059-0.201-0.064-0.307
					c0.011-0.271,0.084-0.536,0.193-0.784c0.006-0.012,0.016-0.021,0.021-0.033c0.005,0.007,0.01,0.014,0.015,0.022
					C237.855,165.156,237.856,165.232,237.858,165.308z M236.858,194.109c-0.815,0.553-1.69,1.018-2.63,1.302
					c-1.432,0.433-3.605,0.687-4.521-0.781c-0.452-0.724-0.548-1.832-0.032-2.553c0.56-0.783,1.265-0.778,2.094-0.945
					c1.081-0.217,2.136-0.584,3.114-1.092c0.577-0.3,1.087-0.65,1.568-1.022c0.194,0.917,0.349,1.841,0.429,2.778
					C236.944,192.546,236.859,193.339,236.858,194.109z M239.569,196.201c-1.553-0.947-0.864-3.496-1.02-5.05
					c-0.174-1.738-0.597-3.441-1.067-5.12c-0.992-3.542-2.368-7.143-2.381-10.868c-0.011-3.251,1.354-6.265,3.687-8.42
					c0.074-0.057,0.141-0.119,0.206-0.185c0.526-0.463,1.082-0.899,1.699-1.268c4.034-2.416,9.333-1.581,13.37,0.659
					c-1.233,0.263-2.445,0.61-3.635,1.045c-0.346,0.127-0.774,0.376-1.159,0.478c0.132-0.07-0.16-0.174-0.485-0.225
					c-0.347-0.054-0.695-0.084-1.046-0.101c-2.428-0.119-4.887,0.649-6.666,2.338c-2.015,1.914-2.765,4.669-2.609,7.386
					c0.236,4.117,2.592,7.547,3.466,11.5C242.217,189.664,243.108,198.359,239.569,196.201z M247.871,168.469
					c-0.434,0.231-0.843,0.486-1.232,0.763c-0.101-0.269-0.206-0.535-0.311-0.801c0.427-0.034,0.857-0.035,1.282,0.001
					C247.697,168.439,247.783,168.456,247.871,168.469z M240.278,177.553c-0.017-0.127-0.05-0.249-0.064-0.377
					c-0.191-1.793,0.076-3.655,0.852-5.202c0.987-0.075,1.974-0.15,2.961-0.226c-0.68,0.878-1.266,1.843-1.775,2.872
					c-0.459,0.929-0.838,1.903-1.188,2.893C240.803,177.527,240.541,177.54,240.278,177.553z M240.697,178.59
					c-0.049,0.149-0.1,0.297-0.149,0.445c-0.034-0.144-0.063-0.289-0.093-0.434C240.536,178.598,240.617,178.594,240.697,178.59z
					 M241.754,170.868c0.427-0.561,0.941-1.051,1.549-1.445c0.467-0.172,0.934-0.343,1.401-0.515
					c0.188,0.494,0.358,0.993,0.531,1.491c-0.074,0.072-0.145,0.146-0.216,0.22C243.931,170.703,242.842,170.786,241.754,170.868z
					 M243.759,183.17c-0.224,0.901-0.499,1.799-0.825,2.678c-0.523-1.483-1.128-2.938-1.655-4.415c1.18-3.242,2.09-6.696,3.976-9.44
					c0.973-1.415,2.268-2.54,3.735-3.363c0.261,0.021,0.523,0.022,0.79-0.055c1.593-0.46,3.072-1.051,4.659-1.428
					c0.17-0.004,0.339-0.024,0.51-0.02c1.989,0.044,4.379,0.844,5.632,2.534c-1.342,0.102-2.684,0.204-4.026,0.307
					c-0.276-0.009-0.554-0.001-0.832,0.016c0.256-0.14,0.484-0.328,0.64-0.571c0.188-0.295,0.316-0.618,0.348-0.97
					c0.021-0.232-0.097-0.465-0.212-0.659c-0.14-0.236-0.382-0.437-0.642-0.527c-0.337-0.116-0.693-0.114-1.036-0.025
					c-0.296,0.077-0.544,0.216-0.798,0.378c-0.244,0.156-0.464,0.355-0.66,0.566c-0.114,0.123-0.174,0.34-0.13,0.503
					c0.045,0.169,0.203,0.314,0.364,0.371c0.423,0.149,0.88,0.007,1.182-0.31c-0.026,0.025-0.051,0.051-0.077,0.076
					c0.084-0.082,0.182-0.149,0.276-0.221c0.001,0.002,0.003,0.004,0.004,0.006c0,0.001,0.001,0.001,0.001,0.002
					c-0.005,0.037-0.011,0.073-0.018,0.109c-0.024,0.077-0.056,0.151-0.093,0.223c-0.211,0.002-0.47,0.106-0.634,0.237
					c-0.132,0.105-0.283,0.293-0.289,0.473c-0.005,0.177,0.06,0.35,0.213,0.453c0.043,0.029,0.091,0.04,0.137,0.059
					c-2.361,0.478-4.662,1.757-6.265,3.387C245.388,176.235,244.637,179.636,243.759,183.17z M247.278,196.172
					c1.151-2.902,1.982-5.964,2.21-9.086c0.09-1.242,0.151-2.575-0.11-3.805c-0.002-0.009-0.013-0.012-0.016-0.02
					c0.022-1.695-0.098-3.396-0.346-5.087c0.959-0.048,1.919-0.096,2.878-0.144c0.003,0.013,0.006,0.027,0.009,0.041
					c1.329,6.749,0.526,13.914-1.55,20.43c-1.565,4.913-4.067,9.397-5.961,14.171c-1.4,3.529-1.916,7.005-0.641,10.371
					c-1.634-1.227-3.068-2.7-4.191-4.444c-0.209-0.325-0.402-0.657-0.589-0.993c-0.267-0.35-0.386-1.287-0.39-1.845
					c-0.017-2.484,1.086-5.009,2.14-7.198c0.746-1.55,1.593-3.04,2.452-4.521c0.11-0.03,0.222-0.054,0.329-0.095
					c0.249-0.096,0.505-0.239,0.699-0.425c0.177-0.171,0.297-0.336,0.406-0.556c0.121-0.243,0.176-0.514,0.196-0.783
					c0.013-0.172,0.015-0.355-0.001-0.531c0.013-0.038,0.017-0.076-0.003-0.11c-0.005-0.038-0.029-0.069-0.06-0.096
					c-0.012-0.02-0.024-0.039-0.037-0.059C245.653,199.703,246.557,197.99,247.278,196.172z M253.53,177.949
					c1.556-0.078,3.112-0.155,4.667-0.233c1.717,5.238,1.387,10.752,0.084,16.269c-1.584,6.701-4.683,12.835-6.73,19.376
					c-0.833,2.66-1.468,5.522-0.986,8.312c0.397,2.297,1.608,4.22,3.212,5.815c-2.305-0.589-4.566-1.347-6.693-2.401
					c-0.176-0.087-0.346-0.184-0.52-0.275c-2.346-3.68-2.292-7.54-0.822-11.555c1.743-4.761,4.298-9.173,5.942-13.982
					C254.04,192.392,254.843,184.95,253.53,177.949z M243.267,201.581c0.011-0.006,0.023-0.012,0.037-0.018
					c0.01-0.004,0.018-0.006,0.027-0.009c-0.009,0.005-0.027,0.015-0.035,0.019C243.29,201.575,243.275,201.579,243.267,201.581z
					 M243.423,201.504C243.423,201.504,243.424,201.503,243.423,201.504c0.007-0.004,0.013-0.007,0.019-0.01
					C243.433,201.499,243.431,201.499,243.423,201.504z M245.272,197.192c-0.531,1.224-1.126,2.409-1.762,3.571
					c-0.192,0.001-0.383,0.031-0.57,0.084C243.778,199.662,244.558,198.441,245.272,197.192z M243.091,201.975
					c0.006,0.009,0.013,0.017,0.018,0.025c0.013,0.101,0.013,0.203,0.012,0.305c-0.011,0.277-0.064,0.554-0.174,0.809
					c-0.043-0.11-0.065-0.225-0.068-0.344C242.894,202.495,242.975,202.226,243.091,201.975z M242.87,203.301
					c0.001,0,0.004-0.001,0.005-0.001c-0.001,0-0.001,0.001-0.002,0.002c-0.001,0-0.004,0-0.005,0
					C242.868,203.302,242.869,203.301,242.87,203.301z M242.787,203.361c0,0-0.001,0.001-0.001,0.001
					c-0.017,0.014-0.036,0.027-0.054,0.04C242.758,203.382,242.769,203.374,242.787,203.361z M241.196,203.171
					c0.01,0.345,0.131,0.666,0.459,0.845c-0.841,1.453-1.676,2.911-2.425,4.424c-0.791,1.601-1.563,3.331-1.992,5.113
					c-0.51-1.591-0.878-3.233-1.159-4.874C237.877,207.002,239.608,205.153,241.196,203.171z M231.231,213.674
					c-0.002,0.034-0.007,0.067-0.009,0.101c-0.017-0.012-0.027-0.028-0.047-0.038C231.194,213.716,231.213,213.695,231.231,213.674z
					 M231.211,214.508c0.008,2.074,0.465,4.206,1.157,6.04c2.742,7.279,9.795,11.619,16.844,14.034
					c5.328,1.825,10.923,2.858,16.56,3.602c-0.418,2.206-0.454,4.433-0.011,6.574c-5.441-1.055-10.838-2.333-16.031-4.232
					c-7.58-2.773-15.024-7.64-17.782-15.595C230.835,221.723,230.377,217.875,231.211,214.508z M229.259,216.029
					c-0.016,0.108-0.037,0.214-0.05,0.322c-0.059-0.005-0.13-0.005-0.204-0.003C229.09,216.242,229.174,216.135,229.259,216.029z
					 M229.106,217.567c-0.088,1.879,0.126,3.802,0.512,5.55c1.556,7.043,6.801,12.338,12.996,15.679
					c7.172,3.868,15.427,5.68,23.464,7.156c0.267,0.898,0.603,1.78,1.054,2.63c0.086,0.57,0.257,1.154,0.529,1.755
					c0.804,1.774,1.997,3.358,3.427,4.763c-1.44-0.333-2.878-0.67-4.309-1.025c-14.745-3.651-34.592-9.243-37.815-26.587
					C228.377,224.328,228.295,220.758,229.106,217.567z M227.246,218.643c-0.007,0.03-0.01,0.061-0.017,0.092
					c-0.016-0.002-0.03-0.005-0.047-0.006C227.203,218.7,227.225,218.672,227.246,218.643z M226.841,221.309
					c-0.724,7.998,3.203,16.174,9.298,21.248c6.772,5.638,15.669,8.483,24.039,10.781c4.071,1.118,8.19,2.059,12.302,3.019
					c3.537,2.904,8.105,4.86,12.17,5.83c0.261,0.062,0.53,0.1,0.793,0.155c-0.035,0.003-0.058,0.006-0.058,0.006
					c0.042,0.003,0.08,0.003,0.122,0.006c0.602,0.123,1.206,0.232,1.82,0.315c1.041,0.353,2.486,1.068,4.316,2.512
					c1.601,1.263,2.94,1.987,4.038,2.332c-0.749,0.874-2.175,1.775-4.895,2.273c-2.703,0.496-6.331,0.176-9.313-0.255
					c-1.485-0.682-3.012-1.218-4.313-1.686c-6.804-2.447-13.83-4.219-20.62-6.715c-7.885-2.898-16.025-6.625-22.08-12.598
					c-0.927-0.914-1.758-1.899-2.541-2.914c0.666,0.732,1.348,1.451,2.072,2.121c0.301,0.278,0.609,0.553,0.945,0.787
					c0.312,0.218,0.782,0.141,1.112-0.005c0.165-0.073,0.35-0.163,0.456-0.315c0.061-0.087,0.117-0.246,0.004-0.325
					c-0.642-0.448-1.204-1.018-1.753-1.572c-0.528-0.533-1.041-1.08-1.544-1.636c-0.106-0.116-0.211-0.233-0.315-0.351
					c-0.313-0.355-1.546,0.04-1.626,0.449c-3.089-4.336-4.9-9.452-5.167-14.863C225.964,227.105,226.152,224.109,226.841,221.309z
					 M326.843,242.95c-0.901-0.723-1.916-1.377-2.995-1.885c0.261-0.248,0.621-0.596,1.12-1.084
					c2.239,1.337,4.366,2.858,6.334,4.588c-1.481,1.097-3.11,1.934-4.886,2.349c-0.295-0.045-0.593-0.068-0.894-0.069
					c0.577-1.07,1.082-2.178,1.472-3.336C327.075,243.274,327.046,243.113,326.843,242.95z M271.307,279.108
					c-0.346,0.083-0.693,0.161-1.039,0.243c0.338-0.084,0.683-0.17,1.029-0.256C271.3,279.1,271.304,279.104,271.307,279.108z
					 M162.682,285.3c-0.113-1.048,0.215-1.948,0.731-2.765c0.552,0.186,1.105,0.367,1.664,0.535
					c3.157,0.946,6.385,1.373,9.632,1.273c-0.585,1.482-0.147,2.947,0.992,4.038c1.821,1.643,4.707,1.241,6.805,0.435
					c2.755-1.059,5.238-3.343,6.285-6.133c0.137-0.366,0.234-0.751,0.269-1.137c1.232-0.207,2.469-0.335,3.715-0.316
					c0.85,0.013,1.738,0.092,2.633,0.233c-3.054,1.273-5.984,2.822-8.675,4.734c-1.715,1.219-3.307,2.59-4.737,4.111
					c-0.512-0.015-1.024-0.026-1.536-0.046c-0.669-0.029-1.337-0.063-2.006-0.1c-1.056-0.056-2.112-0.109-3.167-0.19
					c-2.42-0.185-4.835-0.438-7.237-0.792c-1.029-0.152-2.056-0.323-3.079-0.517c-0.92-0.175-1.217-0.507-1.654-1.379
					C163.006,286.661,162.757,285.997,162.682,285.3z M179.639,285.662c-0.121-0.141-0.318-0.178-0.494-0.19
					c-0.389-0.027-0.791,0.083-1.13,0.273c-0.163,0.091-0.314,0.204-0.447,0.334c-0.24,0.234-0.473,0.476-0.706,0.717
					c-0.067,0.069-0.128,0.143-0.195,0.212c-0.473-0.706-0.673-1.525-0.431-2.42c0.347-1.286,1.355-2.316,2.358-3.134
					c1.685-1.374,3.688-2.278,5.897-2.171c1.564,0.076,3.131,0.908,2.856,2.699c-0.183,1.199-0.894,2.317-1.635,3.251
					c-0.772,0.973-1.736,1.787-2.82,2.393c-1.13,0.632-2.657,1.084-4.003,0.846c0.17-0.126,0.32-0.276,0.428-0.469
					c0.149-0.267,0.262-0.546,0.343-0.842c0.07-0.258,0.119-0.523,0.13-0.791C179.8,286.127,179.808,285.858,179.639,285.662z
					 M184.255,289.5c1.576-1.549,3.337-2.907,5.194-4.101c2.278-1.464,4.708-2.677,7.226-3.696c2.031,0.454,4.007,1.239,5.572,2.33
					c-6.458,2.669-12.211,6.841-16.195,12.785c-0.275,0.41-0.543,0.83-0.798,1.258c-0.729-0.42-1.457-0.841-2.186-1.261
					c-0.659-0.38-3.024-1.397-3.128-1.934c-0.041-0.21,0.791-1.157,0.987-1.442c0.328-0.475,0.673-0.94,1.032-1.393
					C182.671,291.15,183.44,290.301,184.255,289.5z M207.536,279.68c-0.377-0.319-0.772-0.614-1.177-0.896
					c1.521-0.326,3.046-0.613,4.569-0.841c1.499-0.224,3.013-0.417,4.528-0.504c1.097,0.721,1.894,1.824,2.444,3.017
					c-4.373,0.305-8.782,1.132-12.967,2.557c0.869-0.992,1.739-1.985,2.608-2.977c0.01-0.011,0.006-0.018,0.014-0.029
					c0.002-0.002,0.001-0.004,0.003-0.007c0.043-0.059,0.068-0.112,0.062-0.155C207.621,279.789,207.597,279.732,207.536,279.68z
					 M218.64,281.162c0.2-0.009,1.352-0.223,1.194-0.626c-0.585-1.492-1.564-2.986-2.951-3.826
					c-0.006-0.003-0.016-0.003-0.022-0.006c-0.04-0.061-0.16-0.099-0.419-0.087c-0.85,0.04-1.701,0.109-2.551,0.197
					c0.059-0.007,0.108-0.012,0.169-0.019c4.244-0.528,6.558-3.769,3.446-5.738c0,0-0.003,0.02-0.005,0.034
					c-0.058-0.29-0.141-0.573-0.273-0.836c-0.003-0.026-0.005-0.052-0.008-0.077c-0.006-0.042-0.031-0.078-0.061-0.11
					c-0.001-0.001,0-0.002-0.001-0.003c-0.002-0.002-0.005-0.002-0.007-0.004c-0.007-0.007-0.015-0.013-0.023-0.019
					c-0.459-0.774-1.235-1.361-2.195-1.53c-2.044-0.359-4.351,0.649-5.906,1.921c-1.272,1.041-2.314,2.525-2.055,4.251
					c0.261,1.74,1.913,2.103,3.467,2.048c0.215,0.185,0.949,0.362,3.225,0.108c-2.578,0.281-5.147,0.76-7.662,1.319
					c-0.147,0.033-0.294,0.073-0.441,0.106c-5.331-3.264-12.57-3.638-18.42-2.437c-3.247,0.667-6.244,1.759-9.61,1.713
					c-2.785-0.038-5.519-0.614-8.175-1.421c-0.231-0.07-0.459-0.15-0.689-0.224c0.232-0.331,0.484-0.648,0.811-0.927
					c1.587-1.355,3.958-1.675,5.998-2.062c0.995,0.081,1.989,0.127,2.955,0.12c5.08-0.041,9.98-1.449,14.389-3.874
					c0.573,0.12,1.149,0.226,1.725,0.307c4.416,0.621,8.92,0.342,13.339-0.099c0.289-0.029,0.902-0.216,0.961-0.568
					c0.25-1.498,0.499-2.997,0.749-4.495c0.02-0.119-0.036-0.196-0.119-0.255c-0.064-0.108-0.24-0.167-0.608-0.098
					c-0.014,0.003-0.028,0.005-0.041,0.007c0,0-0.001,0-0.001,0c-4.25,0.79-9.574,0.862-13.746-0.994
					c0.36-0.19,0.727-0.37,1.113-0.523c2.623-1.038,5.515-1.096,8.136-2.162c1.515-0.616,2.693-1.609,4.086-2.434
					c1.692-1.003,3.62-1.425,5.573-1.218c0.462,0.049,1.061,0.075,1.485,0.275c0.487,0.23,0.347,0.079,0.494,0.686
					c0.335,1.38,0.78,2.742,1.279,4.072c0.628,1.67,1.381,3.288,2.217,4.863c0.096,0.182,0.195,0.363,0.293,0.544
					c0.172,0.313,0.341,0.627,0.52,0.936c0.294,0.51,0.599,1.014,0.914,1.514c0.037,0.059,0.071,0.12,0.108,0.179
					c0.062,0.097,0.131,0.189,0.194,0.286c0.154,0.237,0.304,0.476,0.462,0.711c0.089,0.132,0.192,0.255,0.282,0.386
					c0.637,0.931,1.3,1.841,1.994,2.727c0.041,0.052,0.079,0.105,0.12,0.157c1.624,2.059,3.394,3.997,5.269,5.835
					c0.034,0.034,0.069,0.068,0.104,0.101c0.004,0.004,0.008,0.008,0.012,0.012c-6.107,1.046-12.534,4.238-16.441,9.148
					c-4.917,0.474-9.843,0.841-14.775,1.072c7.236-7.147,21.128-7.913,21.611-8.212C220.618,281.611,218.64,281.162,218.64,281.162z
					 M203.095,284.405c0.017-0.007,0.032-0.016,0.049-0.022c0.006,0,0.012-0.004,0.019-0.004
					C203.14,284.388,203.117,284.396,203.095,284.405z M203.957,284.062c0.013-0.011,0.031-0.016,0.044-0.027
					c0.136-0.052,0.269-0.113,0.405-0.164c0.048-0.018,0.098-0.033,0.146-0.05C204.36,283.899,204.162,283.979,203.957,284.062z
					 M212.872,269.094c0.077-0.006,0.128-0.008,0.212-0.008c1.003,0.006,1.883,0.603,2.385,1.432
					c-0.374,0.503-0.758,0.999-1.16,1.478c-0.225,0.249-0.576,0.572-0.441,0.935c0.132,0.356,0.557,0.459,0.893,0.487
					c0.291,0.024,0.59-0.026,0.874-0.118c-0.574,1.35-1.974,2.452-3.301,2.714c-1.295,0.234-3.033,0.15-3.556-1.306
					c-0.467-1.301,0.107-2.713,0.976-3.691c0.503-0.567,1.117-1.052,1.774-1.428c0.319-0.182,0.613-0.317,0.921-0.414
					c0.022-0.006,0.078-0.021,0.118-0.032c0.015-0.002,0.136-0.028,0.161-0.032C212.65,269.122,212.844,269.096,212.872,269.094z
					 M172.032,271.25c-0.07-0.012-0.14-0.042-0.21-0.068c0.022-0.034,0.054-0.076,0.111-0.139c0.641-0.693,1.057-1.888,1.518-2.711
					c0.188-0.336,0.376-0.671,0.563-1.007c2.879,1.237,6.337,0.894,9.325,0.302c2.091-0.414,4.181-0.994,6.177-1.763
					c1.42,0.578,2.84,1.157,4.259,1.735c-5.827,3.815-12.833,5.425-19.72,4.133C173.378,271.607,172.708,271.36,172.032,271.25z
					 M215.5,248.021c-0.036-0.071-0.069-0.143-0.093-0.219c0.035,0.022,0.076,0.033,0.109,0.056
					c0.122,0.099,0.229,0.212,0.316,0.343c0.05,0.1,0.068,0.209,0.085,0.319C215.757,248.372,215.612,248.208,215.5,248.021z
					 M218.044,285.957c2.85-2.24,6.255-3.777,9.741-4.728c0.501-0.137,1.006-0.257,1.514-0.368c0.465,0.964,0.929,1.929,1.394,2.893
					c-6.626,1.955-11.984,6.8-13.533,13.714c-0.078,0.348-0.143,0.701-0.195,1.056c-1.942,0-3.884,0-5.826,0
					C211.628,293.487,214.055,289.093,218.044,285.957z M231.711,284.353c0.04-0.01,0.078-0.026,0.118-0.036
					c0.183-0.046,0.885-0.325,0.734-0.637c-0.326-0.677-0.652-1.353-0.978-2.03c0.688,0.626,1.386,1.241,2.095,1.843
					c-0.919,0.583-1.764,1.291-2.502,2.076c-0.434,0.462-0.848,0.955-1.216,1.476c-0.604,0.086-1.21,0.164-1.815,0.247
					C228.956,286.555,230.67,285.179,231.711,284.353z M236.29,283.206c2.04-0.732,5.231-0.209,6.355,1.888
					c-3.621,0.586-7.253,1.113-10.883,1.646C232.906,285.203,234.524,283.839,236.29,283.206z M303.744,256.13
					c0.008,0,0.017,0.002,0.025,0.001C303.763,256.132,303.753,256.131,303.744,256.13
					C303.744,256.131,303.744,256.13,303.744,256.13z M308.839,264.536c1.307,0.075,2.395-0.896,4.087-2.015
					c0.325,0.576,0.624,1.174,0.873,1.81c-2.673,2.952-9.24,3.956-11.979,3.691c-0.553-0.969-1.248-1.833-2.052-2.606
					c0.311-0.954,0.616-1.932,1.892-2.526c1.231-0.574,1.945-1.418,2.31-1.976c0,0,0.001,0.001,0.001,0.002
					c0.458,0.565,1.074,1.12,1.759,1.525l-0.001,0C305.728,262.439,306.964,264.428,308.839,264.536z M321.526,260.916
					c-2.412,1.491-5.026,2.139-6.288,2.384c-0.253-0.58-0.542-1.134-0.859-1.665c0.36-0.197,0.742-0.393,1.157-0.581
					c2.916-1.321,6.686-6.619,7.751-8.178c0.897,1.022,1.694,2.137,2.374,3.354C325.171,257.286,323.947,259.419,321.526,260.916z
					 M314.172,257.621c-1.664,1.333-3.396,2.582-5.193,3.73c-0.245,0.157-0.492,0.311-0.74,0.464
					c-0.044,0.027-0.089,0.055-0.134,0.081c-0.097-0.05-0.299-0.103-0.455-0.156c-0.66-0.227-1.256-0.626-1.745-1.121
					c-1.155-1.168-1.852-2.848-2.16-4.485c0.059,0.007,0.118,0.014,0.176,0.024c0.072,0.012,0.143,0.027,0.213,0.043
					c0.012,0.003,0.059,0.016,0.082,0.022c0.026,0.008,0.053,0.017,0.063,0.02c0.183,0.06,0.36,0.134,0.532,0.22
					c0.096,0.048,0.189,0.099,0.281,0.154c0.007,0.004,0.002,0.001,0.005,0.003c0.023,0.015,0.047,0.03,0.07,0.045
					c0.056,0.038,0.111,0.077,0.166,0.117c0.21,0.154,0.406,0.325,0.59,0.508c0.54,0.538,0.965,1.173,1.316,1.846
					c0.161,0.309,0.67,0.236,0.947,0.155c0.155-0.045,0.896-0.312,0.742-0.608c-0.617-1.184-1.434-2.272-2.622-2.924
					c-0.376-0.206-0.792-0.349-1.219-0.435c4.009-2.002,7.507-4.991,10.563-8.234c1.698-1.801,3.314-3.721,4.732-5.759
					c1.765,0.332,3.448,1.261,4.866,2.351C323.223,249.352,318.787,253.925,314.172,257.621z M311.072,246.625l2.8,0.519
					c-1.367,1.413-2.832,2.756-4.389,3.959c0.453-1.004,0.86-2.031,1.196-3.083C310.825,247.561,310.942,247.09,311.072,246.625z
					 M312.503,239.543c0.138-1.044,0.252-2.093,0.327-3.147c1.568,0.041,3.135,0.015,4.699-0.055
					c0.343,0.135,0.682,0.283,1.022,0.425C316.131,237.815,313.693,238.971,312.503,239.543z M310.575,241.196
					c-0.559,3.912-1.549,7.995-3.419,11.56c-1.527,0.991-3.116,1.842-4.748,2.494c-0.288,0.115-0.515,0.389-0.476,0.703
					c0.107,0.852,0.335,1.728,0.665,2.561c-3.856,3.141-9.002,4.053-13.9,3.43c-5.123-0.652-10.761-2.888-14.897-6.457
					c1.891,1.242,3.936,2.256,5.975,3.009c4.489,1.658,9.371,1.972,13.895,0.261c5.898-2.231,9.916-7.466,12.689-12.914
					c0.015-0.029,0.007-0.048,0.016-0.074c0.012-0.018,0.033-0.034,0.041-0.053c1.308-3.064,2.352-6.243,3.133-9.486
					c0.513,0.04,1.027,0.057,1.541,0.085C310.973,237.954,310.805,239.584,310.575,241.196z M256.148,263.105
					c-0.013,0.066-0.036,0.129-0.07,0.188c-0.02,0.024-0.039,0.05-0.062,0.073c-0.015,0.011-0.03,0.023-0.046,0.034
					c-0.009,0.005-0.018,0.01-0.028,0.014c-0.003,0.001-0.005,0.002-0.008,0.003c-0.004,0.001-0.007,0.002-0.011,0.003
					c-0.012,0.002-0.025,0.004-0.037,0.006c-0.023,0.001-0.047,0.003-0.07,0.004c-0.021-0.001-0.041-0.002-0.062-0.003
					c-0.028-0.003-0.056-0.007-0.084-0.01c-0.005-0.001-0.011-0.002-0.016-0.004c-0.047-0.012-0.091-0.031-0.136-0.049
					c-0.079-0.044-0.149-0.1-0.206-0.17c-0.058-0.105-0.082-0.221-0.078-0.342c0.019-0.13,0.061-0.255,0.115-0.375
					c0.003-0.002,0.007-0.005,0.009-0.007c0.049-0.035,0.099-0.067,0.149-0.1c0.013-0.007,0.027-0.014,0.04-0.021
					c0.027,0.008,0.052,0.02,0.078,0.031c0.16,0.088,0.291,0.212,0.401,0.357C256.098,262.849,256.147,262.97,256.148,263.105z
					 M223.337,232.827c0.134-2.594,0.487-5.285,1.156-7.861c-0.899,7.294,1.147,15.106,5.459,20.85
					c5.009,6.671,12.799,10.94,20.342,14.139c1.583,0.672,3.185,1.29,4.796,1.879c-0.176,0.065-0.358,0.115-0.522,0.201
					c-0.179,0.093-0.334,0.219-0.495,0.335c-0.008,0.004-0.017,0.006-0.025,0.01c-0.082,0.045-0.161,0.099-0.23,0.163
					c-0.013,0.011-0.03,0.018-0.043,0.029c-0.018,0.016-0.021,0.039-0.033,0.058c-0.009,0.014-0.025,0.023-0.033,0.038
					c-0.119,0.242-0.213,0.535-0.159,0.808c0.041,0.205,0.19,0.388,0.369,0.49c0.627,0.358,1.459,0.246,2.126,0.082
					c0.413-0.102,0.813-0.266,1.172-0.492c0.228-0.143,0.448-0.337,0.565-0.584c0.025-0.053,0.025-0.113,0.035-0.171
					c4.713,1.614,9.499,3.013,14.246,4.535c2.023,0.649,4.063,1.327,6.04,2.14c3.213,1.844,3.418,5.957-2.848,6.638
					c-3.063,0.333-5.956-0.035-8.236-0.55c-0.699-0.231-1.4-0.455-2.097-0.677c-6.036-1.929-12.053-3.889-17.726-6.753
					c-3.848-1.943-7.637-4.312-11.032-7.121c0.095-0.195,0.157-0.407,0.179-0.616c0.042-0.409-0.086-0.83-0.352-1.145
					c-0.26-0.307-0.575-0.508-0.93-0.686c-0.16-0.08-0.327-0.149-0.498-0.199c-0.009-0.003-0.018-0.005-0.027-0.008
					c-0.018-0.005-0.034-0.004-0.052-0.008c-0.076-0.025-0.15-0.033-0.229-0.036c-0.02-0.001-0.042-0.003-0.062-0.004
					c-0.024,0.001-0.048-0.008-0.071-0.004c-0.056,0.008-0.11,0.021-0.165,0.031c-0.022,0.005-0.042,0.001-0.065,0.008
					c-0.007,0.002-0.015,0.007-0.022,0.009c-0.17,0.034-0.337,0.078-0.497,0.14c-1.776-1.743-3.406-3.618-4.784-5.671
					C224.642,246.935,222.975,239.867,223.337,232.827z M281.05,276.638c-2.672,0.706-5.349,1.396-8.034,2.053
					c-0.005-0.008-0.013-0.013-0.017-0.021C275.565,278.028,278.29,277.342,281.05,276.638z M234.614,260.36
					c-0.042-0.034-0.091-0.059-0.131-0.095c-0.127-0.134-0.238-0.282-0.328-0.443c-0.005-0.012-0.006-0.025-0.01-0.037
					c0.085,0.054,0.171,0.107,0.248,0.173c0.067,0.073,0.126,0.151,0.176,0.237C234.59,260.248,234.603,260.304,234.614,260.36z
					 M220.61,235.721c0.304-2.106,0.732-4.244,1.306-6.338c-1.056,7.093,0.014,14.693,3.188,20.847
					c1.872,3.631,4.366,6.754,7.256,9.486c-0.003,0.086,0.001,0.173,0.012,0.261c0.015,0.111,0.05,0.218,0.095,0.32
					c0.071,0.16,0.15,0.316,0.251,0.459c0.178,0.253,0.409,0.48,0.656,0.665c0.292,0.219,0.621,0.362,0.976,0.438
					c0.157,0.033,0.318,0.033,0.478,0.019c7.366,5.977,16.734,9.812,25.511,12.637c0.648,0.209,1.3,0.412,1.952,0.615
					c-0.146,0.989-0.882,2.493-3.648,3.923c-2.469,1.277-6.621,1.201-9.98,0.847c-3.857-1.248-7.54-3.052-10.88-5.338
					c-6.286-4.302-11.751-10.465-14.762-17.501C220.147,250.347,219.573,242.903,220.61,235.721z M216.739,243.686
					c0.416-3.764,1.367-7.429,2.711-10.96c-0.071,0.352-0.152,0.706-0.218,1.057c-1.33,7.123-1.157,14.644,1.245,21.527
					c4.271,12.238,15.082,21.821,27.309,25.804l2.5,1.155c0,0,0,0-1.816,0.746c-1.2,0.493-3.454,0.625-4.85,0.658
					c-1.144-1.141-2.948-1.692-4.46-1.762c-1.426-0.066-2.802,0.259-4.078,0.833c-3.499-2.988-6.764-6.277-9.561-9.914
					c0.245-0.078,0.48-0.192,0.684-0.348c0.128-0.098,0.282-0.23,0.308-0.403c0.022-0.147-0.059-0.292-0.188-0.362
					c-0.169-0.092-0.377-0.118-0.566-0.094c-0.033,0.004-0.067,0.016-0.101,0.022c-0.014-0.08-0.019-0.16-0.023-0.24
					c-0.008-0.298,0.009-0.601,0.055-0.895c0.024-0.154-0.061-0.284-0.188-0.362c-0.154-0.095-0.393-0.116-0.566-0.094
					c-0.221,0.028-0.455,0.091-0.637,0.225c-0.135,0.099-0.281,0.227-0.308,0.403c-0.003,0.017-0.001,0.034-0.004,0.05
					c-1.443-2.087-2.732-4.281-3.817-6.597c-2.128-4.542-3.338-9.431-3.59-14.398c0.144-0.051,0.283-0.114,0.409-0.197
					c0.369-0.242,0.606-0.634,0.652-1.075c0.041-0.397-0.073-0.76-0.331-1.065c-0.205-0.242-0.487-0.431-0.769-0.572
					c-0.001,0-0.001,0-0.002-0.001C216.566,245.779,216.623,244.732,216.739,243.686z M195.173,247.74
					c0.007-0.012,0.005-0.011,0.008-0.015c0.025-0.037,0.051-0.073,0.079-0.107c0.043-0.051,0.086-0.101,0.132-0.148
					c0.014-0.007,0.124-0.1,0.153-0.123c0.028-0.021,0.058-0.041,0.089-0.06c0.019-0.01,0.058-0.031,0.085-0.044
					c0.05-0.023,0.273-0.121,0.234-0.107c-0.04,0.015,0.17-0.051,0.232-0.067c0.268-0.071,0.42-0.091,0.734-0.114
					c0.681-0.05,1.366,0.002,2.038,0.112c1.294,0.21,2.548,0.693,3.647,1.406c1.769,1.149,3.771,3.321,3.198,5.621
					c-0.029,0.093-0.057,0.186-0.09,0.277c-0.36-0.376-0.756-0.72-1.223-0.949c-0.384-0.187-0.786-0.309-1.212-0.348
					c-0.225-0.021-0.459-0.004-0.681,0.036c-0.33,0.06-0.681,0.162-0.961,0.353c-0.216,0.147-0.342,0.329-0.31,0.595
					c0.025,0.204,0.122,0.4,0.219,0.578c0.254,0.469,0.583,0.893,0.908,1.315c-0.646-0.124-1.296-0.342-1.859-0.578
					c-2.12-0.89-3.905-2.31-5.008-4.351c-0.383-0.708-0.689-1.574-0.659-2.337C194.943,248.282,194.988,248.072,195.173,247.74z
					 M177.904,247.711c-0.845-0.845-1.887-1.709-3.017-2.221c1.337-0.897,2.675-1.794,4.012-2.69
					c1.226,0.64,2.309,1.687,3.191,2.688c1.292,1.467,2.325,3.144,3.153,4.911c1.092,2.331,1.548,4.806,2.424,7.2
					c2.294,6.266,9.561,7.791,15.504,7.733c1.547-0.015,3.118-0.108,4.656-0.339c-0.196,1.178-0.393,2.356-0.589,3.534
					c-4.085,0.399-8.837,0.758-13.116-0.124c0.482-0.294,0.965-0.588,1.433-0.907c0.189-0.129,0.264-0.367,0.016-0.469
					c-1.686-0.687-3.372-1.374-5.057-2.06c-0.097-0.039-0.249-0.033-0.415-0.004c-0.186-0.008-0.394,0.018-0.583,0.096
					c-0.56,0.23-1.133,0.435-1.709,0.629c-0.217-0.164-0.438-0.32-0.646-0.499c-2.86-2.468-3.488-5.689-4.543-9.128
					C181.68,253,180.189,249.994,177.904,247.711z M146.63,277.742c0.638-2.064,1.647-4.055,2.998-5.748
					c8.514-0.206,16.036,5.277,24.382,6.315c2.168,0.27,4.36,0.284,6.526-0.014c2.575-0.354,5.004-1.299,7.562-1.733
					c4.275-0.725,8.732-0.454,12.813,1.063c1.68,0.625,3.45,1.439,4.867,2.579c-0.829,0.947-1.658,1.893-2.487,2.839
					c-2.028-1.288-4.444-2.108-6.766-2.501c-2.574-0.435-5.048-0.244-7.498,0.197c-0.061-0.349-0.188-0.687-0.406-0.997
					c-0.558-0.79-1.584-1.166-2.5-1.321c-2.531-0.428-5.298,0.305-7.426,1.691c-1.288,0.839-2.591,1.877-3.442,3.193
					c-2.805,0.103-5.603-0.177-8.434-0.964c-5.287-1.47-10.118-4.015-15.649-4.606C149.762,277.587,148.118,277.464,146.63,277.742z
					 M185.08,326.81c-0.008-0.001-0.021,0.001-0.03,0.001c-0.047-0.056-0.086-0.125-0.139-0.174
					c-0.023,0.019-0.515-0.279-0.68-0.364c-0.709-0.363-1.407-0.745-2.1-1.138c-14.128-8.022-26.69-20.883-30.79-36.958
					c-0.34-1.334-0.617-2.682-0.836-4.039c0.557,0.53,1.177,1.008,1.835,1.419c3.189,1.992,6.947,3.042,10.663,3.768
					c0.551,0.21,1.219,0.235,1.81,0.34c0.108,0.019,0.216,0.031,0.324,0.049c0.168,0.029,0.339,0.06,0.506,0.087
					c5.104,0.84,10.282,1.293,15.487,1.476c-1.094,1.272-2.083,2.636-2.937,4.101c-0.025,0.069-0.009,0.128,0.047,0.176
					c1.457,0.841,2.915,1.681,4.372,2.522h0l-1.163,2.889l6.76,3.214c0.6-5.161,4.969-11.222,6.313-12.982
					c3.33-0.133,6.656-0.322,9.963-0.577c2.716-0.188,5.43-0.409,8.142-0.67c-0.072,0.102-0.15,0.199-0.219,0.302
					c-1.778,2.64-2.755,5.688-3.002,8.851c-0.022,0.281,0.281,0.359,0.512,0.359c1.242,0,2.483,0,3.725,0
					c-0.322,0.937,0.241,4.716,0.241,4.716h7.032c0.202-12.803,4.256-15.677,4.256-15.677s0.111-0.016,0.263-0.04
					c0.692-0.093,1.385-0.182,2.076-0.278c0.849-0.114,1.697-0.228,2.546-0.348c0.128,0.023,0.26,0.026,0.35,0.013
					c4.363-0.646,8.735-1.257,13.087-1.979c0.33-0.01,0.709-0.133,0.928-0.318c4.318-0.767,8.62-1.616,12.912-2.515
					c0.34,0.017,0.681,0.051,1.02,0.052c0.378,0.001,0.65-0.189,0.782-0.425c4.279-0.916,8.54-1.902,12.787-2.942
					c0.279-0.008,0.639-0.1,0.915-0.224c1.004-0.248,2.012-0.484,3.015-0.739c3.612-0.919,7.222-1.89,10.822-2.905
					c0.118-0.022,0.232-0.054,0.343-0.095c5.659-1.6,11.284-3.343,16.847-5.262c0.342-0.112,0.682-0.23,1.023-0.343
					c0.099-0.032,0.211-0.066,0.306-0.097c0.453-0.148,0.913-0.305,1.374-0.466c7.378-2.514,14.657-5.385,21.569-8.901
					c0.338-0.033,0.674-0.194,0.83-0.434c1.671-0.866,3.32-1.77,4.943-2.717c2.608-1.471,5.141-3.07,7.537-4.854
					c0.027-0.02,0.055-0.042,0.082-0.062c0.62,6.395,1.837,31.679-14.974,49.067c-2.284,1.378-4.588,2.717-6.93,3.982
					c-2.378,1.237-4.931,2.533-7.581,3.835c-18.21,8.71-37.873,14.293-57.885,17.196c-19.272,2.796-38.968,3.298-58.357,1.458
					C192.223,327.819,188.612,327.446,185.08,326.81z M262.781,332.592c-14.649,2.764-29.669,4.24-44.584,3.824
					c-5.589-0.156-11.193-0.573-16.708-1.517c-3.979-0.681-8.119-1.586-11.743-3.431c-1.193-0.607-2.394-1.334-3.304-2.331
					c-0.34-0.372-0.563-0.86-0.784-1.328c10.131,1.652,20.573,2.079,30.796,2.129c24.644,0.119,49.422-3.162,72.917-10.714
					c0,0,17.058-4.225,21.237-6.153c4.148-1.915,15.531-5.991,13.031-2.943c-6.313,4.53-13.626,7.891-20.685,10.802
					C290.048,326.252,276.486,330.007,262.781,332.592z M343.643,228.874c1.688-0.07,3.311,0.452,4.697,1.469
					c0.6,0.439,1.612,1.126,1.617,1.895c0.01,1.698-0.963,3.819-1.621,5.352c-0.717,1.673-1.613,3.266-2.644,4.764
					c-3.347,4.864-8.118,8.729-13.26,11.569c-0.789,0.436-1.592,0.848-2.409,1.229c-0.061,0.028-0.124,0.057-0.187,0.084
					c-2.926-1.168-4.69-4.018-4.442-7.148c0.143,0.01,0.286,0.017,0.428,0.039c0.023,0.004,0.239,0.046,0.287,0.053
					c0.007,0.002,0.014,0.003,0.022,0.005c0.061,0.016,0.122,0.033,0.182,0.052c0.104,0.032,0.208,0.068,0.309,0.107
					c0.056,0.022,0.112,0.045,0.167,0.069c0.028,0.012,0.1,0.05,0.135,0.068c0.222,0.128,0.441,0.254,0.644,0.414
					c0.056,0.044,0.11,0.089,0.164,0.135c0.027,0.023,0.053,0.047,0.08,0.071c0.115,0.116,0.226,0.234,0.33,0.359
					c0.586,0.708,0.9,1.462,1.139,2.35c0.21,0.779,1.899,0.329,1.689-0.452c-0.41-1.521-1.232-3.005-2.642-3.802
					c-0.258-0.146-0.527-0.264-0.801-0.364C335.401,244.689,340.855,236.324,343.643,228.874z M337.94,237.033
					c-1.462,2.283-3.284,4.693-5.463,6.596c-2.031-1.735-4.236-3.254-6.554-4.587c0.002-0.002,0.003-0.003,0.005-0.005
					c2.41-2.377,7.993-4.904,10.486-5.962c1.093,0.273,2.2,0.572,3.295,0.948C339.149,235.05,338.563,236.06,337.94,237.033z
					 M311.045,226.661C311.045,226.661,311.045,226.661,311.045,226.661C311.045,226.661,311.045,226.661,311.045,226.661
					C311.045,226.661,311.045,226.661,311.045,226.661z M310.051,232.586c0.608-1.541,0.967-3.317,0.433-4.935
					c7.214,2.243,15.658,0.633,22.225-2.978c1.245,1.115,1.918,2.799,2.408,4.359c0.145,0.463,0.48,1.189,0.449,1.68
					c-0.006,0.088,0.112,0.29,0.078,0.375c-0.063,0.157-1.032,0.567-1.266,0.701c-3.903,2.232-8.399,3.243-12.837,3.691
					c-3.515,0.355-7.065,0.36-10.588,0.107c-1.041-0.075-2.081-0.174-3.116-0.308c-0.166-0.022-0.509-0.002-0.654-0.09
					c-0.345-0.208-0.523-1.156-0.653-1.603c-0.664-2.291-0.117-5.015,1.744-6.473c0.015,0.019,0.032,0.036,0.046,0.056
					c0.1,0.136,0.189,0.28,0.269,0.429c0.02,0.038,0.039,0.076,0.059,0.114c-0.092-0.175,0.005,0.014,0.021,0.052
					c0.046,0.108,0.087,0.217,0.124,0.329c0.201,0.603,0.251,1.081,0.228,1.671c-0.035,0.898-0.266,1.759-0.594,2.592
					C308.06,233.282,309.756,233.334,310.051,232.586z M274.961,223.321c3.556-4.495,7.809-8.555,12.582-11.74
					c3.782-2.524,8.496-5.076,13.203-4.714c3.637,0.28,5.946,3.238,7.146,6.437c1.488,3.965,1.754,8.362,1.519,12.607
					c-0.475-0.401-1.436,0.043-1.487,0.567c-0.48,0.264-0.924,0.611-1.254,0.891c-1.533,1.3-2.317,3.18-2.123,5.189
					c0.083,0.865,0.357,2.778,1.097,3.241c0.174,0.109,0.608,0.088,0.799,0.112c0.499,0.065,1.001,0.104,1.502,0.156
					c-0.782,3.34-1.845,6.616-3.186,9.769c-2.392,4.69-5.68,9.37-10.57,11.691c-3.799,1.803-8.052,1.73-12.01,0.499
					c-4.233-1.317-8.456-3.804-11.403-7.135c-3.109-3.514-4.238-8.013-3.403-12.609
					C268.381,232.744,271.513,227.679,274.961,223.321z M267.073,230.383c0.51,0.044,1.02,0.079,1.531,0.116
					c-0.899,1.71-1.676,3.478-2.255,5.317c-0.109,0.348-0.189,0.7-0.28,1.051c-2.887-0.407-5.764-0.876-8.62-1.469
					c-8.458-1.757-18.012-5.146-22.425-13.189c-1.681-3.063-2.646-7.137-1.811-10.619c0.01-0.043-0.005-0.071-0.005-0.108
					c0.445-0.472,0.897-0.936,1.36-1.388c0.51,2.582,1.29,5.07,2.456,7.327c0.077,0.308,0.186,0.602,0.382,0.832
					c0.025,0.029,0.07,0.043,0.109,0.061c1.363,2.349,3.185,4.413,5.626,6.011c4.81,3.148,10.677,4.517,16.498,5.291
					c0.16,0.089,0.373,0.108,0.6,0.076C262.554,229.984,264.856,230.192,267.073,230.383z M260.424,227.147
					c0.599,0.739,1.36,1.426,2.21,1.97c-0.507-0.066-1.009-0.156-1.515-0.229c-0.008-0.008-0.006-0.016-0.015-0.024
					c-1.21-1.038-1.998-2.661-2.507-4.131c-1.359-3.93-1.004-8.3,0.264-12.201c0.086-0.265,0.183-0.526,0.275-0.788
					c-0.113,0.418-0.229,0.835-0.326,1.26C257.762,217.578,257.258,223.243,260.424,227.147z M265.929,186.357
					c0.016,0.385,0.014,0.77,0.014,1.155c-0.014,0.84-0.088,1.661-0.191,2.473c-0.523-0.138-1.104,0.001-1.562,0.27
					c-0.564,0.331-0.949,0.944-1.105,1.569c-0.13,0.522-0.099,1.187,0.456,1.446c0.202,0.095,0.438,0.13,0.658,0.13
					c0.318-0.001,0.624-0.06,0.924-0.151c-1.808,7.004-6.152,13.238-8.203,20.218c-1.114,3.793-1.31,8.093,0.038,11.857
					c0.381,1.065,0.912,2.215,1.626,3.177c-0.026-0.005-0.053-0.007-0.079-0.012c-0.544-0.096-1.089-0.198-1.633-0.305
					c-0.01-0.01-0.006-0.022-0.019-0.032c-2.168-1.687-3.94-3.803-4.526-6.545c-0.547-2.56-0.036-5.216,0.683-7.689
					c1.904-6.557,5.076-12.657,6.755-19.299c1.434-5.671,1.972-11.478,0.247-16.995c0.523-0.026,1.045-0.052,1.568-0.078
					c0.756-0.038,1.512-0.076,2.268-0.113C265.054,180.141,265.792,183.114,265.929,186.357z M264.961,191.428
					c-0.004,0.296-0.051,0.594-0.166,0.868c-0.003,0.006-0.008,0.012-0.012,0.018c-0.036-0.095-0.057-0.193-0.063-0.295
					c0.009-0.269,0.08-0.533,0.187-0.78c0.008-0.016,0.02-0.029,0.029-0.045c0.004,0.007,0.009,0.013,0.014,0.02
					C264.958,191.284,264.96,191.356,264.961,191.428z M366.497,171.247c-0.462,0.071-0.959,0.048-1.425,0.071
					c-3.01,0.15-6.02,0.301-9.03,0.451c-11.952,0.597-23.903,1.194-35.855,1.791c-15.656,0.782-31.312,1.564-46.968,2.346
					c-7.417,0.37-14.834,0.741-22.251,1.111c0.328-4.432,2.555-5.75,4.127-6.114c0.52-0.04,1.04-0.079,1.561-0.119h0h0
					c1.631-0.124,3.262-0.249,4.893-0.373c15.745-1.2,31.49-2.4,47.234-3.599c13.291-1.013,26.582-2.026,39.873-3.038
					c4.096-0.312,8.191-0.624,12.287-0.936c1.546-0.118,3.2-0.424,4.752-0.362c2.433,0.097,2.333,2.664,2.444,4.43
					C368.241,168.503,368.703,170.907,366.497,171.247z"/>
				<path style="fill:#fff;" d="M284.562,247.249c5.38,0.15,10.226-3.298,12.442-8.087c1.961-4.505,1.575-10.272-2.522-13.487
					c-3.713-2.914-8.974-2.289-12.789,0.079c-4.317,2.679-6.997,7.845-6.334,12.932
					C275.978,243.434,279.709,247.113,284.562,247.249z M281.352,227.045c3.267-2.903,7.968-3.59,11.54-0.787
					c1.49,1.169,2.472,2.686,3.022,4.356c0.51,3.413-0.664,10.345-7.617,13.015c-5.294,2.033-8.559-0.199-10.157-1.92
					c-0.409-0.775-0.725-1.609-0.92-2.485C276.236,234.795,277.996,230.027,281.352,227.045z"/>
				<path style="fill:#fff;" d="M246.29,253.754c0.206,0.051,0.432,0.044,0.635-0.016c0.195-0.058,0.425-0.144,0.558-0.304
					c0.01-0.011,0.021-0.021,0.031-0.032c0.164,0.151,0.295,0.333,0.404,0.527c0.066,0.131,0.128,0.264,0.182,0.401
					c0.143,0.361,0.662,0.358,0.976,0.265c0.199-0.059,0.417-0.146,0.559-0.304c0.093-0.103,0.213-0.264,0.154-0.413
					c-0.268-0.675-0.694-1.448-1.479-1.592c-0.745-0.136-1.458,0.122-2.026,0.6c-0.064,0.054-0.127,0.11-0.18,0.174
					c-0.095,0.114-0.198,0.252-0.154,0.413C245.989,253.621,246.152,253.72,246.29,253.754z M247.698,253.257
					c-0.004,0.001-0.012,0.004-0.016,0.005C247.739,253.229,247.804,253.203,247.698,253.257z"/>
				<path style="fill:#fff;" d="M254.449,239.589c0.034,0.108,0.085,0.214,0.147,0.309c0.017,0.026,0.036,0.05,0.057,0.073
					c0.059,0.063,0.122,0.126,0.192,0.178c0.075,0.056,0.165,0.094,0.248,0.134c0.036,0.017,0.072,0.032,0.11,0.044
					c0.453,0.136,0.915,0.094,1.37-0.008c0.113-0.026,0.217-0.072,0.312-0.137c0.092-0.047,0.172-0.111,0.24-0.193
					c0.099-0.118,0.192-0.315,0.138-0.475c-0.056-0.166-0.189-0.289-0.357-0.343c-0.188-0.06-0.376-0.053-0.567-0.018
					c0.009-0.002,0.017-0.003,0.025-0.004c-0.067,0.012-0.136,0.013-0.204,0.018c-0.001-0.002-0.002-0.003-0.003-0.005
					c-0.018-0.049-0.03-0.1-0.038-0.152c-0.001-0.111,0.001-0.223,0.031-0.329c0.015-0.086-0.001-0.165-0.047-0.235
					c-0.029-0.08-0.081-0.143-0.158-0.188c-0.079-0.056-0.166-0.09-0.261-0.104c-0.102-0.03-0.207-0.039-0.315-0.027
					c-0.222,0.023-0.459,0.089-0.635,0.233c-0.049,0.045-0.098,0.091-0.147,0.136c-0.081,0.09-0.13,0.195-0.149,0.314
					c-0.055,0.196-0.045,0.403-0.026,0.602C254.42,239.471,254.431,239.531,254.449,239.589z"/>
				<path style="fill:#fff;" d="M255.453,221.486c-0.188-0.06-0.376-0.052-0.566-0.018c0.008-0.001,0.017-0.003,0.025-0.004
					c-0.067,0.012-0.135,0.013-0.203,0.018c-0.001-0.002-0.003-0.004-0.004-0.006c-0.018-0.05-0.03-0.101-0.038-0.153
					c0-0.111,0.001-0.224,0.031-0.329c0.015-0.086-0.001-0.164-0.047-0.234c-0.029-0.08-0.081-0.143-0.158-0.188
					c-0.079-0.056-0.166-0.09-0.261-0.104c-0.102-0.03-0.207-0.039-0.315-0.026c-0.222,0.023-0.459,0.089-0.635,0.232
					c-0.049,0.045-0.098,0.09-0.147,0.136c-0.081,0.09-0.13,0.194-0.149,0.313c-0.055,0.195-0.045,0.402-0.026,0.602
					c0.006,0.06,0.017,0.12,0.035,0.178c0.034,0.108,0.085,0.214,0.147,0.308c0.017,0.026,0.036,0.05,0.057,0.073
					c0.059,0.063,0.122,0.125,0.191,0.177c0.029,0.022,0.06,0.04,0.092,0.056c0.086,0.044,0.173,0.093,0.266,0.121
					c0.452,0.136,0.916,0.093,1.37-0.008c0.113-0.026,0.217-0.072,0.312-0.137c0.093-0.047,0.173-0.111,0.24-0.192
					c0.099-0.118,0.192-0.314,0.138-0.474C255.754,221.662,255.621,221.54,255.453,221.486z"/>
				<path style="fill:#fff;" d="M265.136,260.416c0.223-0.022,0.448-0.069,0.657-0.149c0.158-0.06,0.356-0.126,0.473-0.252
					c0.007-0.007,0.014-0.013,0.02-0.02c0.026,0.041,0.056,0.08,0.076,0.124c0.027,0.056,0.069,0.13,0.075,0.192
					c0.002,0.026-0.004,0.053-0.009,0.08c-0.035,0.204-0.112,0.399-0.23,0.57c-0.012,0.003-0.023,0.002-0.035,0.005
					c-0.188,0.05-0.413,0.124-0.577,0.235c-0.063,0.042-0.242,0.148-0.199,0.247c0.044,0.102,0.205,0.115,0.296,0.114
					c0.551-0.005,1.111-0.128,1.599-0.389c0.242-0.129,0.447-0.292,0.601-0.521c0.147-0.219,0.214-0.485,0.24-0.745
					c0.012-0.121-0.068-0.249-0.129-0.348c-0.125-0.206-0.281-0.336-0.51-0.406c-0.111-0.034-0.231-0.043-0.347-0.042
					c-0.268,0.001-0.534,0.042-0.793,0.112c-0.339,0.092-0.667,0.225-0.965,0.41c-0.229,0.143-0.455,0.316-0.64,0.515
					c-0.062,0.067-0.124,0.146-0.033,0.219C264.802,260.442,265.036,260.426,265.136,260.416z M266.569,259.741
					c0,0,0.001-0.001,0.001-0.001c-0.002,0.002-0.005,0.004-0.007,0.005C266.566,259.744,266.568,259.743,266.569,259.741z
					 M266.599,260.897c-0.066,0.013-0.146,0.001,0.135-0.018c-0.014,0.001-0.029,0.002-0.043,0.004
					c-0.057,0.006,0.004,0.005,0.057,0.002c-0.075,0.002-0.148,0.022-0.222,0.031C266.596,260.901,266.672,260.883,266.599,260.897z
					"/>
				<path style="fill:#fff;" d="M304.328,262.494c-0.325-0.098-0.699-0.053-1.021,0.031c-0.282,0.074-0.559,0.198-0.805,0.352
					c-0.238,0.149-0.476,0.329-0.668,0.537c-0.089,0.096-0.206,0.221-0.166,0.369c0.036,0.137,0.205,0.213,0.328,0.237
					c0.207,0.039,0.43,0.024,0.631-0.035c0.193-0.056,0.424-0.135,0.563-0.285c0.046-0.05,0.103-0.089,0.154-0.135
					c0.005,0.008,0.013,0.013,0.018,0.021c0.026,0.054,0.051,0.109,0.072,0.166c-0.015,0.131-0.047,0.26-0.096,0.382
					c-0.02,0.038-0.046,0.073-0.07,0.109c-0.124,0.021-0.246,0.052-0.361,0.102c-0.148,0.063-0.367,0.183-0.452,0.332
					c-0.063,0.11-0.104,0.249,0.003,0.353c0.116,0.113,0.301,0.153,0.457,0.152c0.721-0.006,1.536-0.263,1.945-0.901
					c0.147-0.23,0.248-0.507,0.273-0.781c0.001-0.015,0.003-0.03,0.003-0.045c0.01-0.187-0.09-0.35-0.183-0.506
					C304.812,262.709,304.588,262.573,304.328,262.494z"/>
				<path style="fill:#fff;" d="M250.892,204.972c-0.288,0.075-0.551,0.208-0.802,0.365c-0.241,0.151-0.471,0.342-0.664,0.551
					c-0.102,0.111-0.191,0.275-0.149,0.432c0.041,0.152,0.202,0.261,0.345,0.299c0.206,0.055,0.433,0.052,0.637-0.008
					c0.204-0.061,0.409-0.152,0.557-0.311c0.038-0.042,0.082-0.078,0.124-0.117c0.012-0.01,0.027-0.018,0.039-0.028
					c0.005,0.009,0.013,0.016,0.019,0.025c0.012,0.027,0.023,0.054,0.034,0.081c-0.01,0.091-0.029,0.181-0.056,0.269
					c-0.023,0.056-0.053,0.109-0.084,0.161c-0.135,0.016-0.267,0.042-0.4,0.103c-0.155,0.072-0.365,0.209-0.441,0.373
					c-0.062,0.135-0.089,0.298,0.022,0.421c0.113,0.126,0.302,0.207,0.471,0.205c0.254-0.002,0.473-0.014,0.722-0.076
					c0.229-0.057,0.429-0.154,0.631-0.273c0.241-0.142,0.434-0.351,0.584-0.585c0.101-0.158,0.166-0.343,0.215-0.522
					c0.025-0.091,0.043-0.185,0.052-0.28c0.001-0.015,0.003-0.03,0.003-0.045c0.009-0.198-0.099-0.388-0.195-0.554
					c-0.14-0.242-0.376-0.402-0.636-0.492C251.596,204.855,251.217,204.887,250.892,204.972z M251.004,206.682
					c0.018-0.003,0.035-0.006,0.053-0.01c0.033,0,0.066-0.001,0.099-0.001c-0.053,0.001-0.102,0.008-0.153,0.011
					C251.003,206.683,251.004,206.682,251.004,206.682z"/>
				<path style="fill:#fff;" d="M223.93,252.13c0.081-0.062,0.214-0.191,0.181-0.314c-0.033-0.122-0.212-0.169-0.314-0.181
					c-0.165-0.019-0.335-0.001-0.499,0.033c-0.028-0.094-0.046-0.191-0.056-0.286c-0.019-0.182-0.017-0.365-0.009-0.547
					c0.01-0.163,0.023-0.327,0.048-0.488c0.023-0.056,0.015-0.104-0.022-0.144c-0.026-0.055-0.071-0.089-0.135-0.103
					c-0.156-0.064-0.388-0.052-0.548-0.025c-0.22,0.036-0.448,0.096-0.641,0.21c-0.052,0.034-0.104,0.067-0.156,0.101
					c-0.079,0.054-0.138,0.125-0.176,0.212c-0.048,0.305-0.068,0.618-0.066,0.926c0.003,0.4,0.05,0.927,0.49,1.086
					c0.137,0.05,0.296,0.061,0.44,0.059c0.187-0.003,0.382-0.037,0.561-0.088C223.356,252.487,223.659,252.337,223.93,252.13z"/>
				<path style="fill:#fff;" d="M240.091,275.34c0.417,0.258,0.865,0.515,1.339,0.65c0.402,0.114,0.784,0.151,1.196,0.06
					c0.196-0.044,0.423-0.179,0.55-0.336c0.101-0.124,0.189-0.327,0.133-0.491c-0.12-0.356-0.498-0.43-0.834-0.395
					c-0.003,0-0.005-0.001-0.008-0.001c0.018-0.004,0.019-0.006-0.015-0.004c-0.003,0-0.005,0-0.008,0
					c-0.025-0.003-0.049-0.008-0.074-0.013c-0.016-0.004-0.032-0.007-0.045-0.011c-0.191-0.061-0.373-0.148-0.553-0.239
					c-0.347-0.187-0.687-0.395-1.001-0.632c-0.333-0.251-0.908-0.163-1.213,0.094c-0.137,0.115-0.285,0.274-0.292,0.463
					c-0.007,0.18,0.063,0.33,0.209,0.441C239.673,275.073,239.881,275.21,240.091,275.34z M242.439,274.822
					c-0.002,0-0.003,0-0.005,0c-0.016-0.003-0.032-0.006-0.054-0.011C242.398,274.815,242.429,274.82,242.439,274.822z"/>
				<path style="fill:#fff;" d="M239.846,232.507c0.255,0.207,0.529,0.445,0.856,0.526c0.133,0.033,0.308,0.04,0.443,0.021
					c0.217-0.029,0.423-0.098,0.613-0.206c0.079-0.053,0.19-0.127,0.207-0.145c0.017-0.018,0.098-0.112,0.111-0.133
					c0.024-0.039,0.053-0.104,0.063-0.147c0.014-0.059,0.007-0.121,0-0.181c-0.019-0.071-0.059-0.124-0.12-0.158
					c-0.06-0.055-0.132-0.088-0.214-0.102c-0.069-0.017-0.14-0.016-0.21-0.016c-0.019-0.014-0.038-0.027-0.056-0.041
					c-0.186-0.143-0.366-0.295-0.539-0.453c-0.129-0.118-0.29-0.161-0.462-0.171c-0.111-0.007-0.221,0.003-0.329,0.029
					c-0.116,0.016-0.227,0.049-0.335,0.098c-0.063,0.033-0.126,0.067-0.189,0.1c-0.104,0.063-0.19,0.146-0.258,0.246
					c-0.061,0.115-0.104,0.274,0.01,0.378C239.569,232.276,239.706,232.394,239.846,232.507z M240.486,232.517
					c-0.02,0.056-0.047,0.111-0.035,0.174c-0.001-0.029-0.001-0.058-0.002-0.086C240.462,232.576,240.474,232.546,240.486,232.517z"
					/>
				<path style="fill:#fff;" d="M241.809,232.825c-0.016,0.01-0.034,0.014-0.051,0.024
					C241.669,232.909,241.622,232.941,241.809,232.825z"/>
			</g>
		</g>
		<g>
			
				<text transform="matrix(1 0 0 1 168.1715 375.5796)" style="fill:#fff; font-family:'Mansalva-Regular'; font-size:32.2228px;">COMPANY</text>
			
				<text transform="matrix(1 0 0 1 199.274 395.603)" style="fill:#fff; font-family:'Poppins-Regular'; font-size:9.3235px; letter-spacing:3;">slogan here</text>
		</g>
		<g>
			<g>
				<path style="fill:#fff;" d="M173.666,154.304c-1.302-1.913-7.325-2.809-5.611-5.253c2.695-2.109,2.336-5.674-1.693-5.586
					c-2.461-3.893-2.085,6.847-9.495,2.125c-3.479-1.995-6.079-2.772-8.744,1.105c-0.198,1.792,1.533,3.459,2.487,4.576
					c1.025,1.651,3.552,0.517,4.516,1.711c0.205,3.337-10.527,6.138-5.968,8.768c5.986,4.46,10.021-8.719,16.183-4.982
					c2.867,0.456,5.312,3.16,8.283,2.516C174.664,158.123,175.405,155.621,173.666,154.304z"/>
				<path style="fill:#fff;" d="M153.21,115.094c3.223-0.528,7.404-3.192,10.463-1.913c0.222,2.094-12.852,12.255-9.878,11.166
					c4.759-2.016-3.628,4.221,1.006,1.983c-0.411,0.013-0.874,1.106-0.094,0.83c0.298-0.056,1.46-1.005,1.363-0.316
					c-0.005,2.212,11.655-8.235,14.712-10.409c0.388-0.38,1.132-0.635,1.051-1.29c-0.569-1.513,1.949-2.023,1.155-3.14
					c-2.43-2.503-5.786-4.622-9.403-4.446c-4.156,0.041-8.289,0.753-12.218,1.82C145.288,110.738,147.216,118.079,153.21,115.094z
					 M162.983,107.849c0.012-0.003,0.03,0.001,0.045,0.002C163.012,107.85,162.997,107.85,162.983,107.849z M155.635,114.251
					c-0.004-0.004-0.008-0.007-0.012-0.01C155.635,114.246,155.636,114.249,155.635,114.251z M152.981,114.995
					C152.992,114.996,152.987,114.995,152.981,114.995C152.987,114.993,152.993,114.992,152.981,114.995z"/>
				<path style="fill:#fff;" d="M172.417,166.01c-4.789,2.221-8.485,6.306-13.912,7.667c-2.563,0.653-5.774,3.081-7.765,0.579
					c-2.066,1.294-0.184,5.148,1.87,5.813c3.636,0.673,7.674-1.731,11.071-3.087c4.303-1.63,9.388-5.176,10.32-9.943
					C172.716,167.384,172.295,167.18,172.417,166.01z"/>
				<path style="fill:#fff;" d="M164.427,128.377c0.465-0.356,0.424-0.946,0.269-1.367c-0.219-0.597-0.397,0.538-0.722,0.107
					c-0.126-0.149,0.174-0.38-0.065-0.479c-1.146,0.208-1.449,0.097-2.503,1.003c0.129-0.996-0.595,0.117-1.056,0.257
					c-2.316,0.943-1.38,4.894-1.371,7.03c-0.363,3.147-0.762,11.204,4.232,7.347C165.478,138.536,162.464,132.592,164.427,128.377z
					 M160.088,138.762c-0.002,0.013,0.007,0.035-0.012,0.035C160.08,138.786,160.083,138.774,160.088,138.762z M159.242,130.644
					c0.001,0.048,0.002,0.097,0.004,0.145C159.24,130.755,159.222,130.626,159.242,130.644z"/>
				<path style="fill:#fff;" d="M155.695,165.046c-3.183-1.037-3.294,4.579-0.792,5.558
					C163.593,172.666,158.53,159.654,155.695,165.046z"/>
				<path style="fill:#fff;" d="M148.954,106.981L148.954,106.981c4.595-1.269,9.188-1.84,13.953-1.523l0,0
					c2.057,0.008,4.854,1.825,6.08-0.443c1.136-0.28,0.418-1.853-0.213-2.467c-0.762-2.503-3.601-2.819-6.155-2.923
					c-4.97-0.213-16.093-2.777-15.846,5.175C145.766,106.894,147.514,107.635,148.954,106.981z M168.819,104.814
					c0.024-0.001,0.02,0.009,0.021,0.03C168.872,104.964,168.719,104.836,168.819,104.814z M169.37,104.652
					c0-0.017,0.004-0.016,0.009-0.001C169.376,104.652,169.373,104.652,169.37,104.652z M155.891,99.356
					c0.01-0.002,0.022,0.002,0.032,0.003C155.913,99.357,155.902,99.357,155.891,99.356z"/>
				<path style="fill:#fff;" d="M155.087,124.354c-0.437,0.007-0.73,0.185-0.778,0.655
					C154.636,124.87,154.96,124.729,155.087,124.354z"/>
				<path style="fill:#fff;" d="M153.232,125.549c-0.265,0.049-0.602,0.5-0.147,0.461
					C153.342,125.967,153.555,125.524,153.232,125.549z"/>
			</g>
		</g>
		<path style="fill:none;stroke:#fff;stroke-miterlimit:10;" d="M199.5,392.196"/>
	</g>
</g>
</svg>
